<!-- icons based on https://codepen.io/ruandre/pen/howFi -->
<svg xmlns="http://www.w3.org/2000/svg" style="display: none;" class="social-icons">
  <symbol id="icon-email" viewBox="0 0 512 512">
    <title>E-Mail Icon</title>
    <path d="M101.3 141.6v228.9h0.3 308.4 0.8V141.6H101.3zM375.7 167.8l-119.7 91.5 -119.6-91.5H375.7zM127.6 194.1l64.1 49.1 -64.1 64.1V194.1zM127.8 344.2l84.9-84.9 43.2 33.1 43-32.9 84.7 84.7L127.8 344.2 127.8 344.2zM384.4 307.8l-64.4-64.4 64.4-49.3V307.8z"/>
  </symbol>
  <symbol id="icon-facebook" viewBox="0 0 512 512">
    <title>Facebook Icon</title>
    <path d="M211.9 197.4h-36.7v59.9h36.7V433.1h70.5V256.5h49.2l5.2-59.1h-54.4c0 0 0-22.1 0-33.7 0-13.9 2.8-19.5 16.3-19.5 10.9 0 38.2 0 38.2 0V82.9c0 0-40.2 0-48.8 0 -52.5 0-76.1 23.1-76.1 67.3C211.9 188.8 211.9 197.4 211.9 197.4z"/>
  </symbol>
  <symbol id="icon-flickr" viewBox="0 0 512 512">
    <title>Flickr Icon</title>
    <path d="M344.5 156.9c-38.7 0-72.1 22.1-88.5 54.4 -16.4-32.3-49.8-54.4-88.5-54.4 -54.8 0-99.1 44.4-99.1 99.1 0 54.8 44.4 99.1 99.1 99.1 38.6 0 72.1-22.1 88.5-54.4 16.4 32.3 49.8 54.4 88.5 54.4 54.8 0 99.1-44.4 99.1-99.1C443.6 201.2 399.2 156.9 344.5 156.9zM344.5 328.7c-40.1 0-72.7-32.6-72.7-72.7s32.6-72.7 72.7-72.7 72.7 32.6 72.7 72.7C417.2 296.1 384.6 328.7 344.5 328.7z"/>
  </symbol>
  <symbol id="icon-gplus" viewBox="0 0 512 512">
    <title>Google Plus Icon</title>
    <path d="M179.7 237.6L179.7 284.2 256.7 284.2C253.6 304.2 233.4 342.9 179.7 342.9 133.4 342.9 95.6 304.4 95.6 257 95.6 209.6 133.4 171.1 179.7 171.1 206.1 171.1 223.7 182.4 233.8 192.1L270.6 156.6C247 134.4 216.4 121 179.7 121 104.7 121 44 181.8 44 257 44 332.2 104.7 393 179.7 393 258 393 310 337.8 310 260.1 310 251.2 309 244.4 307.9 237.6L179.7 237.6 179.7 237.6ZM468 236.7L429.3 236.7 429.3 198 390.7 198 390.7 236.7 352 236.7 352 275.3 390.7 275.3 390.7 314 429.3 314 429.3 275.3 468 275.3"/>
  </symbol>
  <symbol id="icon-instagram" viewBox="0 0 512 512">
    <title>Instagram Icon</title>
    <g><path d="M256 109.3c47.8 0 53.4 0.2 72.3 1 17.4 0.8 26.9 3.7 33.2 6.2 8.4 3.2 14.3 7.1 20.6 13.4 6.3 6.3 10.1 12.2 13.4 20.6 2.5 6.3 5.4 15.8 6.2 33.2 0.9 18.9 1 24.5 1 72.3s-0.2 53.4-1 72.3c-0.8 17.4-3.7 26.9-6.2 33.2 -3.2 8.4-7.1 14.3-13.4 20.6 -6.3 6.3-12.2 10.1-20.6 13.4 -6.3 2.5-15.8 5.4-33.2 6.2 -18.9 0.9-24.5 1-72.3 1s-53.4-0.2-72.3-1c-17.4-0.8-26.9-3.7-33.2-6.2 -8.4-3.2-14.3-7.1-20.6-13.4 -6.3-6.3-10.1-12.2-13.4-20.6 -2.5-6.3-5.4-15.8-6.2-33.2 -0.9-18.9-1-24.5-1-72.3s0.2-53.4 1-72.3c0.8-17.4 3.7-26.9 6.2-33.2 3.2-8.4 7.1-14.3 13.4-20.6 6.3-6.3 12.2-10.1 20.6-13.4 6.3-2.5 15.8-5.4 33.2-6.2C202.6 109.5 208.2 109.3 256 109.3M256 77.1c-48.6 0-54.7 0.2-73.8 1.1 -19 0.9-32.1 3.9-43.4 8.3 -11.8 4.6-21.7 10.7-31.7 20.6 -9.9 9.9-16.1 19.9-20.6 31.7 -4.4 11.4-7.4 24.4-8.3 43.4 -0.9 19.1-1.1 25.2-1.1 73.8 0 48.6 0.2 54.7 1.1 73.8 0.9 19 3.9 32.1 8.3 43.4 4.6 11.8 10.7 21.7 20.6 31.7 9.9 9.9 19.9 16.1 31.7 20.6 11.4 4.4 24.4 7.4 43.4 8.3 19.1 0.9 25.2 1.1 73.8 1.1s54.7-0.2 73.8-1.1c19-0.9 32.1-3.9 43.4-8.3 11.8-4.6 21.7-10.7 31.7-20.6 9.9-9.9 16.1-19.9 20.6-31.7 4.4-11.4 7.4-24.4 8.3-43.4 0.9-19.1 1.1-25.2 1.1-73.8s-0.2-54.7-1.1-73.8c-0.9-19-3.9-32.1-8.3-43.4 -4.6-11.8-10.7-21.7-20.6-31.7 -9.9-9.9-19.9-16.1-31.7-20.6 -11.4-4.4-24.4-7.4-43.4-8.3C310.7 77.3 304.6 77.1 256 77.1L256 77.1z"/><path d="M256 164.1c-50.7 0-91.9 41.1-91.9 91.9s41.1 91.9 91.9 91.9 91.9-41.1 91.9-91.9S306.7 164.1 256 164.1zM256 315.6c-32.9 0-59.6-26.7-59.6-59.6s26.7-59.6 59.6-59.6 59.6 26.7 59.6 59.6S288.9 315.6 256 315.6z"/><circle cx="351.5" cy="160.5" r="21.5"/></g>
  </symbol>
  <symbol id="icon-rss" viewBox="0 0 512 512">
    <title>RSS Icon</title>
    <path d="M201.8 347.2c0 20.3-16.5 36.8-36.8 36.8 -20.3 0-36.8-16.5-36.8-36.8s16.5-36.8 36.8-36.8C185.3 310.4 201.8 326.8 201.8 347.2zM128.2 204.7v54.5c68.5 0.7 124 56.3 124.7 124.7h54.5C306.7 285.3 226.9 205.4 128.2 204.7zM128.2 166.6c57.9 0.3 112.3 22.9 153.2 63.9 41 41 63.7 95.5 63.9 153.5h54.5c-0.3-149.9-121.7-271.4-271.6-271.9V166.6L128.2 166.6z"/>
  </symbol>
  <symbol id="icon-twitter" viewBox="0 0 512 512">
    <title>Twitter Icon</title>
    <path d="M419.6 168.6c-11.7 5.2-24.2 8.7-37.4 10.2 13.4-8.1 23.8-20.8 28.6-36 -12.6 7.5-26.5 12.9-41.3 15.8 -11.9-12.6-28.8-20.6-47.5-20.6 -42 0-72.9 39.2-63.4 79.9 -54.1-2.7-102.1-28.6-134.2-68 -17 29.2-8.8 67.5 20.1 86.9 -10.7-0.3-20.7-3.3-29.5-8.1 -0.7 30.2 20.9 58.4 52.2 64.6 -9.2 2.5-19.2 3.1-29.4 1.1 8.3 25.9 32.3 44.7 60.8 45.2 -27.4 21.4-61.8 31-96.4 27 28.8 18.5 63 29.2 99.8 29.2 120.8 0 189.1-102.1 185-193.6C399.9 193.1 410.9 181.7 419.6 168.6z"/>
  </symbol>
  <symbol id="icon-youtube" viewBox="0 0 512 512">
    <title>Youtube Icon</title>
    <path d="M422.6 193.6c-5.3-45.3-23.3-51.6-59-54 -50.8-3.5-164.3-3.5-215.1 0 -35.7 2.4-53.7 8.7-59 54 -4 33.6-4 91.1 0 124.8 5.3 45.3 23.3 51.6 59 54 50.9 3.5 164.3 3.5 215.1 0 35.7-2.4 53.7-8.7 59-54C426.6 284.8 426.6 227.3 422.6 193.6zM222.2 303.4v-94.6l90.7 47.3L222.2 303.4z"/>
  </symbol>
</svg>
