<?xml version="1.0" encoding="utf-8"?>
<!-- Generator: Adobe Illustrator 16.0.0, SVG Export Plug-In . SVG Version: 6.00 Build 0)  -->
<!DOCTYPE svg PUBLIC "-//W3C//DTD SVG 1.1//EN" "http://www.w3.org/Graphics/SVG/1.1/DTD/svg11.dtd">
<svg version="1.1" id="Ebene_1" xmlns="http://www.w3.org/2000/svg" xmlns:xlink="http://www.w3.org/1999/xlink" x="0px" y="0px"
	 width="841.89px" height="595.28px" viewBox="0 0 841.89 595.28" enable-background="new 0 0 841.89 595.28" xml:space="preserve">
<polygon fill="#FFFFFF" points="188.91,262.185 190.904,255.411 192.479,253.186 192.794,248.535 183.555,246.311 181.035,245.299 
	181.245,243.884 182.61,243.379 195.209,242.165 195.314,237.615 189.329,236.2 172.111,233.772 147.856,230.639 148.696,228.92 
	155.416,225.481 161.716,220.629 160.561,217.696 157.096,211.327 147.961,205.766 137.251,205.26 130.426,210.114 109.427,214.057 
	107.537,213.956 108.587,211.73 109.427,210.72 113.942,205.361 117.092,198.891 109.112,194.441 106.697,192.925 108.692,192.622 
	113.207,193.228 117.197,194.946 121.082,194.745 125.282,191.408 127.591,187.061 130.007,184.229 131.897,183.117 
	132.316,184.432 131.371,192.925 131.056,198.991 147.331,203.643 150.061,206.271 158.251,210.72 160.876,215.775 167.595,219.819 
	170.64,221.942 166.86,218.606 166.126,218.202 168.75,216.888 176.52,212.943 183.344,207.484 184.289,209.607 182.4,213.349 
	179.985,218.304 177.78,223.358 182.465,227.598 193.966,234.946 195.42,235.391 196.784,231.852 197.625,225.685 198.464,224.875 
	200.354,226.797 201.09,235.795 204.764,243.379 213.794,238.121 215.369,237.615 223.454,234.985 207.704,249.646 203.084,253.792 
	196.784,254.602 191.115,261.679 187.65,265.825 "/>
<g>
	<defs>
		<rect id="SVGID_1_" x="40" y="177.041" width="762.488" height="241.239"/>
	</defs>
	<clipPath id="SVGID_2_">
		<use xlink:href="#SVGID_1_"  overflow="visible"/>
	</clipPath>
	<path clip-path="url(#SVGID_2_)" fill="#FFFFFF" d="M90.079,213.273c3.807,2.758,7.72,5.413,6.359,13.233
		c2.58,1.884,6.48,2.476,9.538,3.892v7.005c-3.619-0.347-5.905-2-8.743-3.113c-3.893,8.54,14.954,20.177-2.385,21.795
		c-14.245,28.603-33.683,52.121-50.873,77.84c-0.733,3.572,1.989,3.761,1.59,7.006c0.92-1.481,9.35-3.045,6.359,0.778
		c3.903,0.707,3.028-3.263,6.36-3.113c-0.531,4.151-5.473,3.981-7.154,7.005c5.969,1.683,7.789-7.412,13.513-8.562
		c1.91,3.268-2.695,5.922-5.564,7.005c-0.68,3.228-3.068,4.781-5.565,6.228c0.98,2.365,2.734-0.844,4.77,0
		c-3.849,2.238,1.004,3.862-3.18,4.671c0.618,7.396,4.017,18.249,1.59,24.908c-4.313-3.881-6.258-10.062-8.744-15.568
		c-3.804-8.43-8.039-16.32-7.949-29.579c17.555-26.14,33.96-53.405,51.668-79.396c-4.022-5.075,0.657-14.264-2.385-22.573
		c-2.562-1.902-6.925-2.04-9.539-3.892c0.624-3.206-1.22-3.995-0.794-7.007c2.983,0.713,5.618,1.764,8.743,2.335
		C90.018,222.035,89.438,217.057,90.079,213.273"/>
	<path clip-path="url(#SVGID_2_)" fill="#FFFFFF" d="M140.591,309.629c-15.665-11.503-22.973-31.708-32.2-49.915
		c3.117-3.434,1.987-9.219,1.497-14.818C121.69,264.841,130.159,288.258,140.591,309.629"/>
	<path clip-path="url(#SVGID_2_)" fill="#FFFFFF" d="M154.662,313.83c0.498,4.135-2.704,4.083-3.55,6.698
		c-1.825-1.062-1.868-4.137-3.55-5.359C149.413,314.14,151.935,313.869,154.662,313.83"/>
	<path clip-path="url(#SVGID_2_)" fill="none" stroke="#FFFFFF" stroke-width="2.993" d="M154.662,313.83
		c0.498,4.135-2.704,4.083-3.55,6.698c-1.825-1.062-1.868-4.137-3.55-5.359C149.413,314.14,151.935,313.869,154.662,313.83z"/>
	<path clip-path="url(#SVGID_2_)" fill="#FFFFFF" d="M142.042,338.1v3.277c-3.276-4.924-8.927-15.829-3.034-20.969
		c2.403,0.682,2.362,4.002,2.427,7.208C141.829,330.903,140.64,335.901,142.042,338.1"/>
	<path clip-path="url(#SVGID_2_)" fill="none" stroke="#FFFFFF" stroke-width="2.993" d="M142.042,338.1v3.277
		c-3.276-4.924-8.927-15.829-3.034-20.969c2.403,0.682,2.362,4.002,2.427,7.208C141.829,330.903,140.64,335.901,142.042,338.1z"/>
	<path clip-path="url(#SVGID_2_)" fill="#FFFFFF" d="M103.5,342.107c-28.097,3.201,0.933,52.936-17.632,64.8
		c1.065-2.452,2.74-4.272,3.673-6.861C88.88,378.429,79.137,338.847,103.5,342.107"/>
	<path clip-path="url(#SVGID_2_)" fill="none" stroke="#FFFFFF" stroke-width="2.993" d="M103.5,342.107
		c-28.097,3.201,0.933,52.936-17.632,64.8c1.065-2.452,2.74-4.272,3.673-6.861C88.88,378.429,79.137,338.847,103.5,342.107z"/>
	<path clip-path="url(#SVGID_2_)" fill="#FFFFFF" d="M143.313,348.271c3.753,8.828,8.039,34.82-3.193,37.427
		C141.298,373.362,142.556,361.128,143.313,348.271"/>
	<path clip-path="url(#SVGID_2_)" fill="none" stroke="#FFFFFF" stroke-width="2.993" d="M143.313,348.271
		c3.753,8.828,8.039,34.82-3.193,37.427C141.298,373.362,142.556,361.128,143.313,348.271z"/>
	<path clip-path="url(#SVGID_2_)" fill="#FFFFFF" d="M118.148,356.709c4.042,12.778,2.297,32.102,17.859,31.852
		c-2.372,1.978-5.906,2.643-10.304,2.33C117.48,385.949,118.047,371.064,118.148,356.709"/>
	<path clip-path="url(#SVGID_2_)" fill="none" stroke="#FFFFFF" stroke-width="2.993" d="M118.148,356.709
		c4.042,12.778,2.297,32.102,17.859,31.852c-2.372,1.978-5.906,2.643-10.304,2.33C117.48,385.949,118.047,371.064,118.148,356.709z"
		/>
	<path clip-path="url(#SVGID_2_)" fill="#FFFFFF" d="M55.147,384.37c5.014,10.006,10.785,19.194,14.267,30.856
		c-2.089-0.201-2.192,1.743-4.28,1.543C59.134,408.858,57.574,396.146,55.147,384.37"/>
	<path clip-path="url(#SVGID_2_)" fill="none" stroke="#FFFFFF" stroke-width="2.993" d="M55.147,384.37
		c5.014,10.006,10.785,19.194,14.267,30.856c-2.089-0.201-2.192,1.743-4.28,1.543C59.134,408.858,57.574,396.146,55.147,384.37z"/>
	<path clip-path="url(#SVGID_2_)" fill="#FFFFFF" d="M101.761,279.491c-0.544,3.558,0.282,5.759,4.216,4.877
		c0.059,4.007-3.673,4.254-5.622,6.271c0.303,1.558,3.463,0.281,4.919,0.695c-0.109,2.911-3.451,2.616-5.621,3.484
		c0.217,0.946,1.759,0.579,2.811,0.697c-2.693,4.529-10.082,4.402-15.458,6.271c-1.049-0.638,3.775-1.319,4.215-2.787
		c-0.217-0.946-1.759-0.578-2.811-0.697c-0.05-2.373,2.067-2.595,3.514-3.483c0.118-1.511-2.492-0.315-3.514-0.696
		c0.095-2.694,2.851-2.749,3.514-4.877c-0.18-1.448-3.087-0.19-3.514-1.394c0.001-4.877,6.085-3.724,4.919-9.756
		C96.502,277.123,99.592,277.712,101.761,279.491"/>
	<path clip-path="url(#SVGID_2_)" fill="#F7C201" d="M198.652,226.088c-0.105,5.727-2.081,9.144-2.704,14.227
		C200.332,240.147,200.844,228.309,198.652,226.088 M129.948,221.389c1.837-2.427-1.893-10.554-5.053-9.153
		C128.265,214.018,127.537,218.884,129.948,221.389 M117.54,200.241c-0.797,6.822-6.802,7.224-8.722,12.659
		C113.873,212.025,123.272,205.184,117.54,200.241 M162.978,220.16c-1.896,6.44-10.029,5.195-13.652,9.508
		C155.153,228.794,166.133,225.833,162.978,220.16 M215.634,239.221c5.676-0.183,4.074-3.872,9.505-4.865
		c-0.123,5.712-8.421,9.768-12.438,13.93c1.866,5.962,4.734,11.17,5.729,17.789c-9.966-13.356-26.024-10.97-30.834,4.91
		c-2.035-5.134,2.397-10.678,2.916-15.912c2.45-1.157-0.981,4.563-0.86,6.743c3.292-2.77,3.414-9.447,6.097-12.969
		c0.793-5.616-9.028-5.789-13.574-5.027c5.627,2.044,15.183,1.932,10.302,9.775c-0.094-7.505-12.511-6.44-19.594-6.596
		c5.834-4.513,16.363-3.242,21.529-8.578c-5.09-2.677-13.246-0.736-19.364-1.434c-2.504,6.666-5.654,12.538-9.367,17.716
		c-0.65-7.639,0.127-16.351-4.422-21.057c-9.129-1.824-15.794-0.61-21.545,1.729c2.335-5.585,14.229-7.813,19.442-13.101
		c0.008-7.882-5.929-11.289-10.43-15.779c-5.921,0.177-9.679,3.024-14.755,4.245c0.454,5.5-0.632,12.159-1.49,18.647
		c-4.487-4.243-4.22-12.065-9.55-15.676c-10.449-1.821-15.018,3.6-20.547,7.839c2.236-8.078,7.129-9.564,11.992-17.405
		c-0.57-7.191-8.313-8.985-15.448-11.238c3.182-1.931,9.052-0.546,14.22-0.03c2.637,1.491-3.2,0.47-4.484,0.325
		c2.224,3.661,9.907,3.215,14.45,5.131c4.343-3.101,7.043-8.223,8.936-14.343c-4.465,2.298-5.713,8.564-9.49,11.712
		c-2.042-0.242-4.084-0.482-6.127-0.725c6.437-0.203,12.043-9.86,14.727-17.938c5.347,5.121-3.79,21.141,5.959,22.949
		c-0.086,1.846-3.153,0.015-4.485,0.327c1.495,3.191,8.508,2.234,12.915,3.237c0.448-2.369-5.485,0.063-5.037-2.307
		c3.793,0.448,7.586,0.896,11.379,1.345c-0.144,1.446-0.928,2.106-2.074,2.322c2.041,2.783,6.728,3.576,9.967,5.456
		c-4.208,3.3,7.688,5.945,9.428,9.671c5.853-2.215,10.287-6.179,14.635-10.249c-4.479-0.302-8.41,8.481-16.063,7.514
		c6.038-4.589,12.976-8.067,17.798-14.152c3.22,8.192-11.557,19.046-3.116,24.443c-2.147,2.296-3.296-2.54-5.914-2.41
		c2.469,4.24,8.061,6.129,12.164,9.139c0.009-2.36,3.147-1.248,5.25,0.62c4.344-2.576,1.311-9.206,2.703-14.225
		c5.406,4.313,5.939,12.296,10.212,17.464C207.845,240.949,213.844,240.91,215.634,239.221"/>
	<path clip-path="url(#SVGID_2_)" fill="#FCDE75" d="M206.881,238.186c4.172,1.239,5.953-0.466,8.967-0.652
		c-0.634,0.688-1.249,1.383-0.214,1.688C213.845,240.909,207.845,240.949,206.881,238.186"/>
	<path clip-path="url(#SVGID_2_)" fill="#FFFFFF" d="M108.818,212.9c1.92-5.436,7.926-5.837,8.722-12.658
		C123.271,205.184,113.874,212.025,108.818,212.9"/>
	<path clip-path="url(#SVGID_2_)" fill="#FCDE75" d="M124.896,212.235c3.16-1.4,6.89,6.727,5.053,9.152
		C127.537,218.884,128.266,214.017,124.896,212.235"/>
	<path clip-path="url(#SVGID_2_)" fill="#FFFFFF" d="M149.326,229.669c3.623-4.314,11.756-3.068,13.652-9.509
		C166.133,225.834,155.153,228.795,149.326,229.669"/>
	<path clip-path="url(#SVGID_2_)" fill="#FCDE75" d="M140.512,201.248c-0.448,2.369,5.484-0.063,5.037,2.306
		c-4.407-1.003-11.42-0.044-12.915-3.236c1.332-0.312,4.399,1.519,4.484-0.326C138.496,200.225,140.508,199.98,140.512,201.248"/>
	<path clip-path="url(#SVGID_2_)" fill="#FFFFFF" d="M195.948,240.314c0.623-5.083,2.599-8.5,2.704-14.227
		C200.844,228.309,200.333,240.147,195.948,240.314"/>
	<path clip-path="url(#SVGID_2_)" fill="#FFFFFF" d="M663.557,391.921c2.73,0,3.611,1.789,2.92,5.025
		c-0.031,0.152-0.153,0.723-0.253,1.028h-8.564C658.748,393.672,661.169,391.921,663.557,391.921 M665.784,405.618
		c-0.954,0.799-2.752,1.712-4.663,1.712c-3.583,0-4.908-1.94-4.13-6.547h11.731c0.438-1.404,0.73-2.62,0.949-3.646
		c1.073-5.025-0.716-8.291-5.253-8.291c-4.538,0-8.947,3.419-10.515,10.761c-1.624,7.609,0.615,10.839,6.143,10.839
		c2.969,0,5.064-0.874,6.635-2.013L665.784,405.618z M650.132,395.69c0.923-4.643-0.805-6.921-4.521-6.921
		c-2.628,0-4.88,1.595-5.807,2.583h-0.137l-0.228-2.127h-2.589l-4.464,20.915h3.372l3.143-14.721c1.02-1.9,2.94-3.385,5.021-3.385
		c2.355,0,3.269,1.636,2.659,4.488l-2.906,13.617h3.372L650.132,395.69z M627.845,383.327c-0.292,1.368,0.47,2.432,1.696,2.432
		c1.294,0,2.476-1.063,2.768-2.432c0.316-1.481-0.41-2.546-1.706-2.546C629.377,380.781,628.162,381.846,627.845,383.327
		 M622.77,410.141h3.372l4.464-20.915h-3.371L622.77,410.141z M623.383,389.035c-0.385-0.114-0.982-0.189-1.767-0.189
		c-2.251,0-4.19,1.254-5.365,2.925h-0.136l-0.173-2.545h-2.589l-4.465,20.915h3.338l3.24-15.177
		c1.296-1.597,3.309-2.396,5.047-2.396c0.683,0,1.408,0.114,2.051,0.304L623.383,389.035z M601.924,388.921
		c-2.866,0-4.963,1.671-5.832,2.545h-0.136l2.175-10.189h-3.372l-6.162,28.864h3.372l3.126-14.644
		c1.006-1.674,2.985-3.271,5.169-3.271c2.32,0,3.081,1.712,2.545,4.222l-2.923,13.693h3.372l3.069-14.377
		C607.26,391.391,605.539,388.921,601.924,388.921 M581.681,404.516c-0.333,1.56-1.667,2.853-3.987,2.853
		c-2.185,0-3.738-1.179-4.534-2.396l-2.63,2.738c0.85,1.291,2.918,2.773,6.329,2.773c4.81,0,7.618-3.268,8.228-6.12
		c1.51-7.077-8.158-5.403-7.248-9.664c0.309-1.446,1.592-2.664,3.708-2.664c1.536,0,2.799,0.799,3.405,1.789l2.716-2.51
		c-0.884-1.444-2.751-2.432-5.345-2.432c-4.196,0-7.189,2.849-7.863,6.007C572.957,401.929,582.583,400.292,581.681,404.516
		 M553.537,391.921c2.729,0,3.609,1.789,2.92,5.025c-0.033,0.152-0.155,0.723-0.254,1.028h-8.564
		C548.727,393.672,551.148,391.921,553.537,391.921 M555.764,405.618c-0.954,0.799-2.752,1.712-4.663,1.712
		c-3.583,0-4.908-1.94-4.13-6.547h11.732c0.436-1.404,0.729-2.62,0.949-3.646c1.071-5.025-0.718-8.291-5.254-8.291
		c-4.538,0-8.947,3.419-10.515,10.761c-1.625,7.609,0.616,10.839,6.144,10.839c2.968,0,5.063-0.874,6.635-2.013L555.764,405.618z
		 M535.693,388.921c-2.866,0-4.963,1.671-5.832,2.545h-0.137l2.176-10.189h-3.372l-6.162,28.864h3.372l3.126-14.644
		c1.006-1.674,2.984-3.271,5.169-3.271c2.319,0,3.081,1.712,2.545,4.222l-2.923,13.693h3.372l3.068-14.377
		C541.03,391.391,539.309,388.921,535.693,388.921 M514.307,410.33c2.524,0,3.941-0.568,4.729-1.063l-0.262-2.927
		c-0.679,0.457-1.638,0.8-2.969,0.8c-1.534,0-2.294-0.913-1.855-2.969l2.559-11.984h5.013l0.633-2.962h-5.014l1.161-5.439h-2.248
		l-2.219,5.287l-2.822,0.76l-0.503,2.354h2.661l-2.575,12.062C509.687,408.507,511.171,410.33,514.307,410.33 M501.904,381.2
		c-0.667-0.229-1.514-0.419-2.81-0.419c-3.955,0-6.287,2.469-6.994,5.779l-0.567,2.665h-3.07l-0.591,2.771h3.001L487,410.141h3.372
		l3.873-18.144h4.672l0.592-2.771h-4.604l0.561-2.626c0.373-1.752,1.183-2.665,2.854-2.665c0.955,0,1.673,0.151,2.341,0.38
		L501.904,381.2z M473.112,410.483c5.866,0,9.063-4.446,10.444-10.914c1.372-6.43,0.313-10.724-5.621-10.724
		c-5.866,0-9.063,4.445-10.444,10.913C466.119,406.189,467.178,410.483,473.112,410.483 M471.014,399.531
		c1.089-5.099,2.879-7.572,6.053-7.572c3.31,0,4.088,2.587,2.968,7.838c-1.089,5.099-2.777,7.571-6.052,7.571
		C470.706,407.368,469.902,404.743,471.014,399.531 M448.145,410.33c2.523,0,3.94-0.568,4.729-1.063l-0.262-2.927
		c-0.678,0.457-1.637,0.8-2.967,0.8c-1.535,0-2.295-0.913-1.857-2.969l2.559-11.984h5.014l0.632-2.962h-5.013l1.16-5.439h-2.248
		l-2.219,5.287l-2.822,0.76l-0.502,2.354h2.66l-2.574,12.062C443.523,408.507,445.008,410.33,448.145,410.33 M435.699,388.921
		c-2.866,0-4.963,1.671-5.832,2.545h-0.137l2.174-10.189h-3.371l-6.161,28.864h3.372l3.126-14.644
		c1.005-1.674,2.983-3.271,5.168-3.271c2.321,0,3.081,1.712,2.545,4.222l-2.922,13.693h3.372l3.068-14.377
		C441.035,391.391,439.314,388.921,435.699,388.921 M417.027,392.683l-2.599,12.175c-1.063,1.142-2.565,1.789-3.965,1.789
		c-2.49,0-4.332-1.446-3.162-6.925c1.088-5.1,3.766-7.572,7.076-7.572C415.469,392.149,416.349,392.34,417.027,392.683
		 M420.908,390.138c-1.148-0.685-2.924-1.141-5.585-1.141c-6.176,0-10.121,4.599-11.493,11.028
		c-1.551,7.266,1.252,9.772,5.142,9.772c2.183,0,3.879-0.91,4.623-1.519h0.137l-0.357,1.671c-0.756,3.541-2.394,5.14-5.533,5.14
		c-2.354,0-3.755-0.951-4.422-2.132l-2.567,2.93c0.64,0.987,2.214,2.393,6.069,2.393c4.777,0,8.563-2.735,9.749-8.292
		L420.908,390.138z M398.152,383.327c-0.292,1.368,0.469,2.432,1.696,2.432c1.294,0,2.476-1.063,2.768-2.432
		c0.316-1.481-0.411-2.546-1.706-2.546C399.684,380.781,398.469,381.846,398.152,383.327 M393.077,410.141h3.372l4.464-20.915
		h-3.372L393.077,410.141z M389.882,395.69c0.923-4.643-0.805-6.921-4.522-6.921c-2.628,0-4.879,1.595-5.806,2.583h-0.137
		l-0.227-2.127h-2.589l-4.464,20.915h3.372l3.142-14.721c1.02-1.9,2.94-3.385,5.022-3.385c2.354,0,3.268,1.636,2.659,4.488
		l-2.907,13.617h3.372L389.882,395.69z"/>
	<path clip-path="url(#SVGID_2_)" fill="#FFFFFF" d="M792.968,348.006c0,1.858-1.145,3.432-4.134,3.432
		c-4.322,0-7.813-2.931-9.399-5.005l-5.714,7.433c1.97,2.356,6.729,6.069,14.605,6.069c10.417,0,14.162-7.212,14.162-12.572
		c0-13.514-16.897-11.368-16.897-17.445c0-1.859,1.399-3.146,3.562-3.146c3.307,0,5.782,2.146,7.053,3.789l6.156-6.788
		c-2.349-3.069-6.475-5.64-12.954-5.64c-8.322,0-13.336,5.926-13.336,12.5C776.071,344.073,792.968,342.143,792.968,348.006
		 M746.083,323.344h-0.254c-1.271-2.856-3.491-5.427-8.951-5.427c-3.56,0-7.247,1.5-9.472,4.713h-0.254l-1.587-3.784h-7.87v40.374
		h9.584v-27.446c0.89-2.644,3.179-4.789,5.53-4.789c3.306,0,5.085,2.359,5.085,7.076v25.159h9.584v-27.589
		c1.081-2.859,3.561-4.646,5.976-4.646c2.479,0,4.641,1.573,4.641,6.29v25.945h9.584v-27.875c0-9.215-3.999-13.428-11.046-13.428
		C751.547,317.917,747.924,320.559,746.083,323.344 M677.233,345.929c0,9.579,3.681,14.077,11.362,14.077
		c4.515,0,7.374-1.643,9.473-4.498h0.254l1.333,3.712h8.124v-40.374h-9.584v27.946c-0.51,1.287-2.034,4.86-6.23,4.86
		c-3.242,0-5.148-2.288-5.148-6.719v-26.088h-9.583V345.929z M661.916,359.577c5.971,0,8.766-1.499,9.973-2.499l-2.477-8.071
		c-1.398,1.216-3.367,1.788-4.891,1.788c-2.352,0-3.748-1.431-3.748-4.22v-19.519h8.957v-8.211h-8.957v-10.149h-6.094l-3.3,9.507
		l-4.637,2.143v6.711h4.573v19.233C651.316,356.079,655.759,359.577,661.916,359.577 M631.181,327.557v19.235
		c-1.208,1.357-2.924,2.072-5.021,2.072c-4.259,0-6.801-2.072-6.801-10.367c0-7.723,2.859-11.655,7.882-11.655
		C628.765,326.842,629.846,327.057,631.181,327.557 M640.637,320.773c-3.173-1.57-7.045-2.428-13.334-2.428
		c-11.753,0-17.466,9.211-17.466,20.58c0,14.509,6.665,18.649,14.097,18.649c3.242,0,5.722-0.928,7.057-2.284h0.254v2.07
		c0,5.725-2.098,7.8-7.055,7.8c-3.752,0-7.243-1.933-9.021-4.724l-5.395,7.937c2.03,2.713,5.585,5.498,14.415,5.498
		c9.594,0,16.447-5.428,16.447-16.439V320.773z M591.162,308.335c0,3.356,2.412,6.07,5.459,6.07c3.237,0,5.648-2.714,5.648-6.07
		c0-3.714-2.411-6.429-5.648-6.429C593.574,301.906,591.162,304.621,591.162,308.335 M591.988,359.22h9.584v-40.373h-9.584V359.22z
		 M570.518,305.052v44.235c0,6.717,3.491,10.575,9.33,10.575c2.097,0,3.431-0.5,4.573-1v-8.497
		c-0.317,0.072-0.635,0.144-1.334,0.144c-1.778,0-2.985-1.001-2.985-4.002v-41.455H570.518z M549.937,308.335
		c0,3.356,2.412,6.07,5.46,6.07c3.236,0,5.648-2.714,5.648-6.07c0-3.714-2.412-6.429-5.648-6.429
		C552.349,301.906,549.937,304.621,549.937,308.335 M550.763,359.22h9.584v-40.373h-9.584V359.22z M527.638,326.198
		c3.877,0,5.656,2.505,5.656,7.228v1.073h-12.647C520.773,329.776,523.315,326.198,527.638,326.198 M537.102,347.86
		c-1.332,1.574-3.998,3.649-7.875,3.649c-6.102,0-8.645-3.506-8.771-9.873h21.407c0.381-3.14,0.444-5.139,0.444-7.21
		c0-9.87-5.268-16.367-14.415-16.367c-10.355,0-16.83,7.782-16.83,20.865c0,13.94,5.775,21.081,17.085,21.081
		c6.861,0,10.353-1.928,13.145-4.498L537.102,347.86z M492.514,309.126v20.584h-16.206v-20.584h-9.711v50.094h9.711v-20.513h16.206
		v20.513h9.711v-50.094H492.514z"/>
	<path clip-path="url(#SVGID_2_)" fill="#FFFFFF" d="M440.789,352.408c0,1.037-0.639,1.915-2.307,1.915
		c-2.41,0-4.358-1.636-5.244-2.793l-3.188,4.147c1.1,1.314,3.754,3.386,8.148,3.386c5.812,0,7.9-4.023,7.9-7.015
		c0-7.538-9.426-6.342-9.426-9.732c0-1.037,0.78-1.755,1.986-1.755c1.845,0,3.227,1.196,3.936,2.113l3.434-3.786
		c-1.311-1.714-3.611-3.147-7.228-3.147c-4.642,0-7.44,3.306-7.44,6.974C431.361,350.214,440.789,349.138,440.789,352.408
		 M419.737,340.242c2.163,0,3.156,1.397,3.156,4.032v0.598h-7.057C415.907,342.238,417.325,340.242,419.737,340.242
		 M425.018,352.327c-0.744,0.878-2.231,2.036-4.395,2.036c-3.404,0-4.823-1.956-4.893-5.508h11.943
		c0.212-1.752,0.247-2.868,0.247-4.023c0-5.506-2.938-9.131-8.042-9.131c-5.777,0-9.389,4.342-9.389,11.641
		c0,7.777,3.222,11.762,9.531,11.762c3.83,0,5.776-1.076,7.333-2.51L425.018,352.327z M397.906,354.283
		c-2.056,0-3.475-1.835-3.475-6.223c0-6.104,1.915-7.181,4.114-7.181c0.993,0,2.163,0.359,2.659,0.799v10.689
		C400.46,353.525,399.396,354.283,397.906,354.283 M401.063,336.498c-0.639-0.199-1.419-0.478-3.298-0.478
		c-4.219,0-8.751,3.066-8.751,12.556c0,7.34,3.08,10.447,7.297,10.447c2.695,0,4.326-1.554,4.893-2.191h0.142l0.85,1.832h4.178
		v-30.22h-5.311V336.498z M359.443,359.012c5.83,0,8.559-1.465,9.737-2.44l-2.419-7.879c-1.364,1.186-3.286,1.745-4.775,1.745
		c-2.295,0-3.659-1.396-3.659-4.119v-19.057h8.745v-8.017h-8.745v-9.909h-5.949l-3.222,9.281l-4.527,2.092v6.553h4.465v18.777
		C349.094,355.596,353.432,359.012,359.443,359.012 M328.69,318.966c-4.034,0-7.261,1.952-9.247,4.253h-0.248v-17.441h-9.357v52.885
		h9.357v-26.447c1.179-2.441,3.785-4.325,6.02-4.325c3.165,0,4.84,2.093,4.84,6.279v24.493h9.357v-26.586
		C339.412,323.219,335.508,318.966,328.69,318.966 M276.1,339.337c0,14.237,5.763,20.094,15.249,20.094
		c7.442,0,10.791-3.277,12.775-6.274l-5.953-6.21c-0.868,1.745-2.853,3.84-5.954,3.84c-4.403,0-6.574-3.909-6.574-12.286
		c0-8.586,2.605-11.379,6.636-11.379c3.535,0,5.334,2.793,5.83,3.771l6.264-6.698c-2.357-3.555-6.45-5.716-12.094-5.716
		C282.793,318.478,276.1,325.448,276.1,339.337 M254.7,318.547c-7.752,0-11.222,5.229-12.586,7.39l6.631,5.516
		c0.867-2.305,2.666-4.47,6.017-4.47c2.855,0,5.028,1.327,5.028,5.727v3.074c-11.045-0.629-18.295,3.554-18.295,12.627
		c0,5.652,3.532,10.88,10.35,10.88c5.028,0,7.635-2.438,8.936-4.391h0.248c1.054,2.438,2.974,4.252,6.32,4.252
		c1.55,0,3.162-0.279,4.651-1.325v-7.25h-0.993c-1.674,0-2.418-0.978-2.418-3.213v-15.771
		C268.589,322.032,263.632,318.547,254.7,318.547 M259.79,348.48c-1.055,1.606-3.104,2.794-5.4,2.794
		c-2.421,0-3.786-1.606-3.786-3.842c0-3.424,3.041-5.028,9.186-4.54V348.48z M207.006,323.074c1.799,5.373,3.598,10.188,5.77,14.933
		l9.555,20.655h11.094v-48.907h-8.985v15.482c0,5.164,0,11.933,0.496,18.771h-0.248c-1.613-4.884-3.97-10.326-6.142-15.003
		l-8.873-19.25h-11.342v48.907h9.047V340.17c0-8.442-0.186-12.211-0.62-17.096H207.006z"/>
</g>
</svg>

