<svg xmlns="http://www.w3.org/2000/svg" xmlns:xlink="http://www.w3.org/1999/xlink" version="1.1" x="0px" y="0px" viewBox="0 0 100 125" style="enable-background:new 0 0 100 100;" xml:space="preserve"><path d="M93,18.7l-7.2-6.5c-0.5-0.5-1.3-0.4-1.8,0.1l-1.6,1.8c-0.2,0.3-0.3,0.6-0.3,0.9c0,0.3,0.2,0.7,0.4,0.9l7.2,6.5  c0.2,0.2,0.6,0.3,0.9,0.3c0.4,0,0.7-0.1,1-0.4l1.6-1.8c0.2-0.3,0.3-0.6,0.3-0.9C93.4,19.3,93.3,19,93,18.7z"/><path d="M88.5,23.8l-7.2-6.5c-0.5-0.5-1.3-0.4-1.8,0.1L68.8,29.3V17.4c0-3.6-3-6.6-6.6-6.6H44.1c-0.9-0.5-2-1.3-2.4-2.3  c-1-2.4-2.2-3.4-4-3.4c-1.8,0-3,1-4,3.4c-0.4,1.1-1.5,1.8-2.4,2.3H13.2c-3.6,0-6.6,3-6.6,6.6v71c0,3.6,3,6.6,6.6,6.6h49  c3.6,0,6.6-3,6.6-6.6V47.6l19.8-22c0.2-0.3,0.3-0.6,0.3-0.9C88.9,24.3,88.7,24,88.5,23.8z M37.7,6.7c1,0,1.8,0.8,1.8,1.8  c0,1-0.8,1.8-1.8,1.8s-1.8-0.8-1.8-1.8C35.9,7.6,36.7,6.7,37.7,6.7z M65,88.4c0,1.6-1.3,2.8-2.8,2.8h-49c-1.6,0-2.8-1.3-2.8-2.8v-71  c0-1.6,1.3-2.8,2.8-2.8h16.4v2.8c-3.1,0.1-6.1,0.4-7.4,0.7c-3,0.9-3.3,5.1-3.3,5.3c0,0.1,0,0.1,0.1,0.2c0.1,0.1,0.1,0.1,0.2,0.1  h36.9c0.1,0,0.1,0,0.2-0.1c0.1-0.1,0.1-0.1,0.1-0.2c0-0.2-0.3-4.4-3.3-5.3c-1.2-0.4-4.3-0.6-7.4-0.7v-2.8h16.4  c1.6,0,2.8,1.3,2.8,2.8v16.1L44.4,56.4c-0.1,0.2-0.2,0.4-0.3,0.6l-2.3,9.8c-0.1,0.5,0,0.9,0.4,1.3c0.2,0.2,0.5,0.3,0.9,0.3  c0.1,0,0.3,0,0.4-0.1L53,65c0.2-0.1,0.4-0.2,0.5-0.4L65,51.8V88.4z M81.4,23.9L51.2,57.6c-0.3,0.3-0.6,0.4-1,0.4  c-0.3,0-0.6-0.1-0.9-0.3c-0.5-0.5-0.6-1.3-0.1-1.8l30.3-33.7c0.5-0.5,1.3-0.6,1.8-0.1C81.9,22.6,81.9,23.4,81.4,23.9z"/><text x="0" y="115" fill="#000000" font-size="5px" font-weight="bold" font-family="'Helvetica Neue', Helvetica, Arial-Unicode, Arial, Sans-serif">Created by Sharon Showalter</text><text x="0" y="120" fill="#000000" font-size="5px" font-weight="bold" font-family="'Helvetica Neue', Helvetica, Arial-Unicode, Arial, Sans-serif">from the Noun Project</text></svg>