<svg xmlns="http://www.w3.org/2000/svg" xmlns:xlink="http://www.w3.org/1999/xlink" version="1.1" x="0px" y="0px" viewBox="0 0 100 125" enable-background="new 0 0 100 100" xml:space="preserve"><g><path fill="#000000" d="M91.6,68.2l-17.4-12H68c-1.1,1.8-2.3,3.7-3.5,5.6h7.9l16,11c0.3,0.2,0.6,0.4,0.8,0.6   c-1.1,0.4-2.5,0.9-4.1,0.9c-1.1,0-2.1-0.2-3-0.6l-3.2-1.6l-0.8,3.4c-1.6,6.8-5.2,9.3-8,9.3H14l14.1-23h8.1   c-1.2-1.9-2.3-3.8-3.4-5.6h-7.8l-21,34.2h66.4c1.8,0,3.7-0.5,5.6-1.5l0,0l0.4-0.3c0.1,0,0.1-0.1,0.2-0.1l16.7-10.7l0,0   c1.3-0.8,2.3-1.7,2.7-2.7C96.7,72.9,95.3,70.5,91.6,68.2z"/><path fill="#000000" d="M50.4,74.1c0,0,17.9-28.1,20-32.9c1.4-2.9,2.2-6.1,2.2-9.6c0-12.2-9.9-22.1-22.1-22.1   c-12.2,0-22.1,9.9-22.1,22.1c0,3.4,0.8,6.7,2.2,9.6C32.5,46,50.4,74.1,50.4,74.1z M50.4,23.8c4.3,0,7.9,3.5,7.9,7.9   c0,4.3-3.5,7.9-7.9,7.9c-4.3,0-7.9-3.5-7.9-7.9C42.6,27.4,46.1,23.8,50.4,23.8z"/></g><text x="0" y="115" fill="#000000" font-size="5px" font-weight="bold" font-family="'Helvetica Neue', Helvetica, Arial-Unicode, Arial, Sans-serif">Created by Mateo Zlatar</text><text x="0" y="120" fill="#000000" font-size="5px" font-weight="bold" font-family="'Helvetica Neue', Helvetica, Arial-Unicode, Arial, Sans-serif">from the Noun Project</text></svg>