<svg xmlns="http://www.w3.org/2000/svg" data-name="Layer 1" viewBox="0 0 48 60" x="0px" y="0px"><title>loop-clock</title><rect x="23.5" y="8.5" width="1" height="3"/><rect x="36.5" y="23.5" width="3" height="1"/><rect x="23.5" y="36.5" width="1" height="3"/><rect x="8.5" y="23.5" width="3" height="1"/><path d="M33.71,14.29a1,1,0,0,0-1.42,0L24,22.59l-5.29-5.3a1,1,0,0,0-1.42,1.42L22.59,24l-1.3,1.29a1,1,0,0,0,0,1.42,1,1,0,0,0,1.42,0L24,25.41l1.29,1.3a1,1,0,0,0,1.42,0,1,1,0,0,0,0-1.42L25.41,24l8.3-8.29A1,1,0,0,0,33.71,14.29Z"/><path d="M24,43A19,19,0,0,0,42,18a.5.5,0,0,0-.63-.32.52.52,0,0,0-.32.64A18,18,0,0,1,12.55,37.89a.49.49,0,0,0-.7.07.49.49,0,0,0,.06.7A19,19,0,0,0,24,43Z"/><path d="M35.37,10a.49.49,0,0,0,.7-.07.49.49,0,0,0-.07-.7A19,19,0,0,0,5.94,29.91a.5.5,0,0,0,.47.35.45.45,0,0,0,.16,0,.5.5,0,0,0,.32-.63A18,18,0,0,1,35.37,10Z"/><path d="M47,23a1,1,0,0,0-1,1A22,22,0,0,1,6.82,37.74l3.23-2.25L1,31.26l.85,9.93,3.3-2.3A24,24,0,0,0,48,24,1,1,0,0,0,47,23Z"/><path d="M2,24A22,22,0,0,1,41.18,10.26L38,12.51l9,4.23-.85-9.93-3.3,2.3A24,24,0,0,0,0,24a1,1,0,0,0,2,0Z"/><text x="0" y="63" fill="#000000" font-size="5px" font-weight="bold" font-family="'Helvetica Neue', Helvetica, Arial-Unicode, Arial, Sans-serif">Created by PiXEL Lab</text><text x="0" y="68" fill="#000000" font-size="5px" font-weight="bold" font-family="'Helvetica Neue', Helvetica, Arial-Unicode, Arial, Sans-serif">from the Noun Project</text></svg>