<svg xmlns="http://www.w3.org/2000/svg" viewBox="40 177.039 762.489 241.241"><path fill="#FFF" d="M188.91 262.185l1.994-6.773 1.574-2.226.315-4.65-9.239-2.225-2.52-1.012.21-1.415 1.364-.505 12.6-1.214.105-4.55-5.985-1.415-17.218-2.429-24.256-3.133.84-1.719 6.721-3.439 6.3-4.852-1.155-2.934-3.465-6.368-9.135-5.562-10.71-.506-6.825 4.854-20.999 3.942-1.89-.101 1.05-2.227.84-1.01 4.515-5.359 3.15-6.47-7.98-4.45-2.414-1.516 1.994-.303 4.516.605 3.99 1.718 3.885-.2 4.2-3.337 2.309-4.348 2.416-2.832 1.89-1.111.42 1.314-.945 8.493-.314 6.066 16.274 4.651 2.729 2.628 8.19 4.449 2.625 5.055 6.72 4.044 3.045 2.123-3.781-3.336-.733-.403 2.624-1.314 7.77-3.945 6.824-5.459.945 2.123-1.889 3.742-2.416 4.955-2.205 5.054 4.686 4.24 11.501 7.348 1.454.445 1.364-3.539.841-6.167.839-.81 1.89 1.922.736 8.998 3.674 7.584 9.03-5.258 1.575-.506 8.085-2.631-15.75 14.661-4.62 4.146-6.3.81-5.669 7.077-3.465 4.146 1.259-3.634zm-98.831-48.912c3.808 2.758 7.72 5.413 6.358 13.233 2.58 1.884 6.48 2.476 9.539 3.892v7.005c-3.619-.347-5.906-2-8.744-3.112-3.893 8.54 14.955 20.177-2.385 21.795-14.244 28.603-33.683 52.121-50.873 77.84-.733 3.572 1.989 3.761 1.59 7.006.92-1.48 9.35-3.045 6.359.778 3.903.707 3.028-3.263 6.36-3.113-.531 4.151-5.473 3.981-7.154 7.005 5.969 1.684 7.789-7.411 13.513-8.562 1.91 3.268-2.695 5.922-5.564 7.005-.68 3.229-3.068 4.781-5.565 6.229.98 2.364 2.734-.845 4.77 0-3.849 2.237 1.004 3.861-3.18 4.671.618 7.396 4.017 18.249 1.59 24.907-4.313-3.881-6.258-10.062-8.744-15.567-3.804-8.431-8.039-16.32-7.949-29.579 17.555-26.141 33.96-53.405 51.668-79.396-4.022-5.075.657-14.264-2.385-22.573-2.562-1.901-6.925-2.04-9.539-3.892.624-3.206-1.22-3.995-.794-7.007 2.982.713 5.617 1.764 8.742 2.335 2.326-2.138 1.746-7.116 2.387-10.9m50.512 96.356c-15.665-11.503-22.973-31.708-32.2-49.915 3.117-3.435 1.987-9.219 1.498-14.818 11.8 19.945 20.27 43.362 30.702 64.733m14.071 4.201c.498 4.135-2.704 4.083-3.551 6.698-1.824-1.063-1.867-4.138-3.549-5.359 1.851-1.029 4.374-1.3 7.1-1.339"/><path fill="none" stroke="#FFF" stroke-width="2.993" d="M154.662 313.83c.498 4.135-2.704 4.083-3.551 6.698-1.824-1.063-1.867-4.138-3.549-5.359 1.851-1.029 4.374-1.3 7.1-1.339z"/><path fill="#FFF" d="M142.042 338.1v3.277c-3.276-4.924-8.927-15.829-3.034-20.969 2.403.682 2.362 4.002 2.428 7.208.393 3.288-.795 8.286.606 10.484"/><path fill="none" stroke="#FFF" stroke-width="2.993" d="M142.042 338.1v3.277c-3.276-4.924-8.927-15.829-3.034-20.969 2.403.682 2.362 4.002 2.428 7.208.393 3.288-.795 8.286.606 10.484z"/><path fill="#FFF" d="M103.5 342.108c-28.097 3.2.934 52.936-17.632 64.8 1.065-2.452 2.739-4.272 3.673-6.861-.661-21.618-10.404-61.2 13.959-57.939"/><path fill="none" stroke="#FFF" stroke-width="2.993" d="M103.5 342.108c-28.097 3.2.934 52.936-17.632 64.8 1.065-2.452 2.739-4.272 3.673-6.861-.661-21.618-10.404-61.2 13.959-57.939z"/><path fill="#FFF" d="M143.313 348.271c3.754 8.828 8.039 34.82-3.192 37.428 1.177-12.336 2.436-24.571 3.192-37.428"/><path fill="none" stroke="#FFF" stroke-width="2.993" d="M143.313 348.271c3.754 8.828 8.039 34.82-3.192 37.428 1.177-12.336 2.436-24.571 3.192-37.428z"/><path fill="#FFF" d="M118.148 356.709c4.041 12.778 2.297 32.102 17.858 31.852-2.372 1.979-5.905 2.644-10.304 2.33-8.222-4.942-7.655-19.826-7.554-34.182"/><path fill="none" stroke="#FFF" stroke-width="2.993" d="M118.148 356.709c4.041 12.778 2.297 32.102 17.858 31.852-2.372 1.979-5.905 2.644-10.304 2.33-8.222-4.942-7.655-19.826-7.554-34.182z"/><path fill="#FFF" d="M55.147 384.37c5.014 10.006 10.785 19.194 14.267 30.855-2.089-.2-2.192 1.743-4.28 1.543-6-7.909-7.56-20.622-9.987-32.398"/><path fill="none" stroke="#FFF" stroke-width="2.993" d="M55.147 384.37c5.014 10.006 10.785 19.194 14.267 30.855-2.089-.2-2.192 1.743-4.28 1.543-6-7.909-7.56-20.622-9.987-32.398z"/><path fill="#FFF" d="M101.762 279.491c-.545 3.558.281 5.759 4.215 4.877.06 4.007-3.672 4.254-5.621 6.271.303 1.559 3.463.281 4.918.695-.108 2.911-3.45 2.616-5.621 3.483.218.946 1.76.579 2.812.697-2.692 4.529-10.082 4.402-15.458 6.271-1.049-.638 3.775-1.319 4.215-2.787-.217-.946-1.759-.578-2.811-.697-.051-2.373 2.066-2.595 3.514-3.483.118-1.511-2.492-.314-3.514-.695.095-2.694 2.851-2.749 3.514-4.877-.18-1.448-3.087-.19-3.514-1.395.001-4.877 6.085-3.724 4.919-9.756 3.172-.972 6.262-.383 8.432 1.396"/><path fill="#F7C201" d="M198.652 226.088c-.105 5.727-2.082 9.144-2.704 14.227 4.384-.168 4.896-12.006 2.704-14.227m-68.704-4.699c1.837-2.427-1.894-10.554-5.054-9.153 3.372 1.782 2.643 6.648 5.054 9.153m-12.408-21.148c-.797 6.821-6.802 7.224-8.722 12.658 5.055-.874 14.453-7.715 8.722-12.658m45.439 19.919c-1.896 6.439-10.029 5.194-13.652 9.508 5.825-.874 16.806-3.835 13.652-9.508m52.655 19.061c5.677-.183 4.074-3.872 9.505-4.865-.123 5.712-8.421 9.769-12.438 13.931 1.865 5.962 4.734 11.17 5.729 17.789-9.966-13.356-26.023-10.971-30.834 4.909-2.035-5.134 2.397-10.678 2.916-15.911 2.45-1.157-.98 4.563-.859 6.742 3.291-2.77 3.414-9.446 6.097-12.969.793-5.616-9.028-5.789-13.574-5.027 5.627 2.045 15.183 1.933 10.302 9.775-.094-7.505-12.511-6.44-19.594-6.596 5.834-4.514 16.363-3.242 21.529-8.578-5.09-2.677-13.246-.736-19.364-1.435-2.504 6.666-5.653 12.538-9.366 17.717-.65-7.64.127-16.352-4.423-21.058-9.129-1.823-15.794-.609-21.545 1.729 2.335-5.585 14.229-7.813 19.442-13.102.008-7.882-5.93-11.289-10.43-15.778-5.922.177-9.68 3.023-14.756 4.245.454 5.5-.632 12.158-1.49 18.646-4.486-4.243-4.219-12.064-9.549-15.676-10.449-1.821-15.019 3.6-20.548 7.839 2.236-8.078 7.13-9.564 11.992-17.405-.569-7.19-8.313-8.984-15.448-11.237 3.182-1.932 9.053-.547 14.221-.03 2.637 1.491-3.2.47-4.484.325 2.225 3.66 9.906 3.215 14.449 5.131 4.344-3.102 7.044-8.224 8.937-14.343-4.465 2.298-5.713 8.563-9.489 11.712-2.043-.242-4.084-.482-6.127-.726 6.437-.203 12.043-9.859 14.727-17.938 5.347 5.121-3.79 21.141 5.959 22.948-.086 1.847-3.153.016-4.485.327 1.495 3.191 8.509 2.234 12.915 3.237.448-2.369-5.484.063-5.037-2.307l11.379 1.345c-.144 1.446-.928 2.105-2.074 2.322 2.041 2.782 6.729 3.575 9.968 5.456-4.208 3.3 7.688 5.944 9.428 9.671 5.853-2.215 10.287-6.18 14.636-10.249-4.479-.303-8.41 8.48-16.063 7.514 6.038-4.589 12.976-8.067 17.798-14.152 3.22 8.192-11.557 19.047-3.116 24.443-2.147 2.296-3.296-2.54-5.914-2.41 2.47 4.24 8.062 6.129 12.164 9.14.009-2.36 3.147-1.248 5.25.619 4.345-2.575 1.312-9.206 2.703-14.225 5.406 4.313 5.938 12.296 10.212 17.464.961 2.769 6.959 2.73 8.749 1.041"/><path fill="#FCDE75" d="M206.881 238.186c4.172 1.239 5.953-.466 8.967-.651-.634.688-1.248 1.383-.214 1.688-1.788 1.686-7.788 1.726-8.753-1.037"/><path fill="#FFF" d="M108.818 212.9c1.92-5.436 7.926-5.837 8.722-12.657 5.731 4.941-3.666 11.782-8.722 12.657"/><path fill="#FCDE75" d="M124.896 212.235c3.16-1.399 6.89 6.728 5.053 9.152-2.412-2.503-1.683-7.37-5.053-9.152"/><path fill="#FFF" d="M149.326 229.669c3.623-4.314 11.756-3.068 13.652-9.509 3.155 5.674-7.826 8.635-13.652 9.509"/><path fill="#FCDE75" d="M140.512 201.248c-.447 2.369 5.484-.063 5.037 2.306-4.406-1.003-11.42-.044-12.915-3.236 1.332-.312 4.399 1.52 4.484-.325 1.378.232 3.39-.013 3.394 1.255"/><path fill="#FFF" d="M195.948 240.314c.622-5.083 2.599-8.5 2.704-14.227 2.192 2.222 1.681 14.06-2.704 14.227m467.609 151.607c2.73 0 3.611 1.789 2.92 5.025-.03.151-.152.723-.253 1.027h-8.563c1.087-4.301 3.508-6.052 5.896-6.052m2.227 13.697c-.954.799-2.752 1.712-4.663 1.712-3.583 0-4.908-1.94-4.13-6.547h11.73c.438-1.404.73-2.62.949-3.646 1.073-5.024-.716-8.291-5.253-8.291-4.538 0-8.947 3.419-10.515 10.762-1.624 7.608.614 10.839 6.143 10.839 2.969 0 5.064-.874 6.635-2.014l-.896-2.815zm-15.652-9.927c.923-4.644-.805-6.922-4.521-6.922-2.628 0-4.88 1.596-5.808 2.583h-.137l-.229-2.127h-2.589l-4.464 20.915h3.372l3.144-14.721c1.02-1.9 2.939-3.385 5.021-3.385 2.355 0 3.269 1.636 2.659 4.488l-2.906 13.616h3.372l3.086-14.447zm-22.287-12.364c-.292 1.368.471 2.432 1.696 2.432 1.294 0 2.476-1.063 2.768-2.432.316-1.481-.409-2.546-1.706-2.546-1.226 0-2.441 1.065-2.758 2.546m-5.075 26.814h3.372l4.465-20.915h-3.371l-4.466 20.915zm.613-21.106c-.385-.114-.981-.189-1.767-.189-2.251 0-4.19 1.254-5.365 2.925h-.136l-.173-2.545h-2.59l-4.465 20.915h3.338l3.24-15.177c1.296-1.597 3.31-2.396 5.047-2.396a7.385 7.385 0 0 1 2.051.304l.82-3.837zm-21.459-.114c-2.866 0-4.963 1.671-5.832 2.545h-.136l2.175-10.188h-3.372l-6.162 28.863h3.372l3.126-14.644c1.006-1.674 2.985-3.271 5.169-3.271 2.32 0 3.081 1.713 2.545 4.223l-2.923 13.692h3.372l3.069-14.377c.933-4.373-.788-6.843-4.403-6.843m-20.243 15.595c-.333 1.561-1.667 2.854-3.986 2.854-2.186 0-3.738-1.179-4.534-2.396l-2.63 2.738c.85 1.291 2.918 2.773 6.329 2.773 4.81 0 7.617-3.269 8.228-6.12 1.51-7.077-8.158-5.403-7.248-9.664.31-1.446 1.592-2.664 3.708-2.664 1.536 0 2.799.799 3.405 1.789l2.716-2.51c-.884-1.444-2.751-2.433-5.345-2.433-4.196 0-7.189 2.85-7.863 6.007-1.504 7.039 8.122 5.402 7.22 9.626m-28.144-12.595c2.729 0 3.609 1.789 2.92 5.025-.033.151-.155.723-.254 1.027h-8.564c1.089-4.301 3.509-6.052 5.898-6.052m2.227 13.697c-.954.799-2.752 1.712-4.663 1.712-3.583 0-4.907-1.94-4.13-6.547h11.732c.371-1.2.688-2.417.949-3.646 1.07-5.024-.719-8.291-5.255-8.291-4.537 0-8.946 3.419-10.515 10.762-1.625 7.608.616 10.839 6.145 10.839 2.968 0 5.063-.874 6.635-2.014l-.898-2.815zm-20.071-16.697c-2.866 0-4.963 1.671-5.832 2.545h-.138l2.177-10.188h-3.372l-6.162 28.863h3.372l3.126-14.644c1.006-1.674 2.983-3.271 5.169-3.271 2.319 0 3.081 1.713 2.545 4.223l-2.923 13.692h3.372l3.067-14.377c.936-4.373-.784-6.843-4.401-6.843m-21.385 21.409c2.523 0 3.94-.568 4.729-1.063l-.262-2.927c-.68.457-1.639.8-2.97.8-1.533 0-2.294-.913-1.854-2.969l2.559-11.984h5.014l.633-2.962h-5.014l1.16-5.438h-2.248l-2.219 5.287-2.821.76-.504 2.354h2.661l-2.574 12.063c-.91 4.256.573 6.079 3.71 6.079m-12.404-29.13c-.667-.229-1.514-.419-2.811-.419-3.954 0-6.286 2.469-6.993 5.778l-.567 2.665h-3.07l-.591 2.771h3.001L487 410.141h3.372l3.873-18.144h4.672l.592-2.771h-4.604l.561-2.626c.373-1.752 1.184-2.665 2.854-2.665.955 0 1.673.151 2.341.381l1.243-3.116zm-28.792 29.284c5.866 0 9.063-4.446 10.444-10.914 1.371-6.431.313-10.725-5.621-10.725-5.866 0-9.063 4.445-10.444 10.913-1.372 6.431-.313 10.726 5.621 10.726m-2.097-10.953c1.089-5.1 2.879-7.572 6.053-7.572 3.31 0 4.088 2.587 2.968 7.838-1.089 5.099-2.777 7.571-6.052 7.571-3.278 0-4.082-2.625-2.969-7.837m-22.869 10.799c2.522 0 3.939-.568 4.729-1.063l-.262-2.927c-.678.457-1.637.8-2.967.8-1.535 0-2.295-.913-1.857-2.969l2.56-11.984h5.014l.632-2.962h-5.013l1.16-5.438h-2.248l-2.22 5.287-2.821.76-.502 2.354h2.659l-2.573 12.063c-.914 4.256.571 6.079 3.709 6.079m-12.447-21.409c-2.866 0-4.963 1.671-5.832 2.545h-.137l2.174-10.188h-3.371l-6.161 28.863h3.372l3.126-14.644c1.005-1.674 2.983-3.271 5.168-3.271 2.321 0 3.081 1.713 2.545 4.223l-2.922 13.692h3.372l3.068-14.377c.934-4.373-.787-6.843-4.402-6.843m-18.672 3.762l-2.6 12.176c-1.063 1.142-2.564 1.789-3.965 1.789-2.49 0-4.332-1.446-3.162-6.926 1.088-5.1 3.767-7.571 7.076-7.571 1.093-.001 1.974.189 2.651.532m3.881-2.545c-1.148-.685-2.924-1.141-5.585-1.141-6.176 0-10.121 4.599-11.493 11.028-1.551 7.266 1.252 9.771 5.143 9.771 2.183 0 3.879-.91 4.623-1.519h.137l-.357 1.671c-.756 3.541-2.394 5.14-5.533 5.14-2.354 0-3.754-.951-4.422-2.132l-2.566 2.93c.64.987 2.214 2.394 6.068 2.394 4.777 0 8.563-2.735 9.75-8.292l4.235-19.85zm-22.756-6.811c-.292 1.368.469 2.432 1.695 2.432 1.295 0 2.477-1.063 2.769-2.432.315-1.481-.411-2.546-1.706-2.546-1.226 0-2.441 1.065-2.758 2.546m-5.075 26.814h3.372l4.464-20.915h-3.372l-4.464 20.915zm-3.194-14.45c.922-4.644-.806-6.922-4.522-6.922-2.628 0-4.879 1.596-5.806 2.584h-.138l-.227-2.128h-2.589l-4.465 20.915h3.373l3.142-14.721c1.021-1.9 2.94-3.385 5.022-3.385 2.354 0 3.268 1.636 2.658 4.488l-2.906 13.616h3.371l3.087-14.447zm403.085-47.685c0 1.858-1.145 3.433-4.134 3.433-4.321 0-7.813-2.932-9.398-5.006l-5.714 7.434c1.97 2.355 6.729 6.068 14.604 6.068 10.417 0 14.162-7.212 14.162-12.571 0-13.515-16.897-11.368-16.897-17.445 0-1.859 1.399-3.146 3.563-3.146 3.307 0 5.782 2.146 7.053 3.789l6.156-6.788c-2.349-3.069-6.475-5.641-12.954-5.641-8.322 0-13.336 5.926-13.336 12.5-.002 13.44 16.896 11.511 16.895 17.373m-46.885-24.662h-.254c-1.271-2.855-3.491-5.427-8.951-5.427-3.56 0-7.247 1.5-9.472 4.713h-.254l-1.587-3.784h-7.87v40.374h9.584v-27.445c.89-2.645 3.179-4.789 5.53-4.789 3.306 0 5.085 2.358 5.085 7.076v25.158h9.584v-27.589c1.081-2.858 3.561-4.646 5.976-4.646 2.479 0 4.642 1.572 4.642 6.29v25.944h9.584v-27.875c0-9.215-3.999-13.428-11.046-13.428-5.087.001-8.709 2.643-10.551 5.428m-68.85 22.585c0 9.579 3.681 14.077 11.362 14.077 4.515 0 7.374-1.643 9.473-4.498h.254l1.333 3.712h8.124v-40.374h-9.584v27.946c-.51 1.287-2.034 4.86-6.229 4.86-3.242 0-5.148-2.288-5.148-6.72v-26.088h-9.583l-.002 27.085zm-15.317 13.648c5.972 0 8.767-1.499 9.974-2.499l-2.478-8.071c-1.397 1.216-3.367 1.788-4.891 1.788-2.353 0-3.748-1.431-3.748-4.22v-19.52h8.957v-8.211h-8.957v-10.148h-6.094l-3.3 9.507-4.638 2.143v6.711h4.573v19.233c.002 9.789 4.446 13.287 10.602 13.287m-30.734-32.02v19.235c-1.208 1.357-2.924 2.072-5.021 2.072-4.259 0-6.801-2.072-6.801-10.367 0-7.723 2.859-11.655 7.882-11.655 1.524 0 2.605.215 3.94.715m9.456-6.783c-3.173-1.57-7.045-2.429-13.334-2.429-11.753 0-17.467 9.211-17.467 20.58 0 14.509 6.665 18.649 14.098 18.649 3.242 0 5.722-.929 7.057-2.284h.254v2.07c0 5.725-2.098 7.8-7.055 7.8-3.752 0-7.243-1.934-9.021-4.725l-5.395 7.938c2.03 2.713 5.585 5.498 14.415 5.498 9.594 0 16.447-5.428 16.447-16.439l.001-36.658zm-49.476-12.439c0 3.356 2.412 6.07 5.459 6.07 3.237 0 5.648-2.714 5.648-6.07 0-3.714-2.411-6.429-5.648-6.429-3.047 0-5.459 2.715-5.459 6.429m.826 50.885h9.584v-40.373h-9.584v40.373zm-21.469-54.168v44.235c0 6.717 3.491 10.575 9.33 10.575 2.097 0 3.431-.5 4.573-1v-8.497c-.317.072-.636.144-1.334.144-1.778 0-2.985-1.001-2.985-4.002v-41.455h-9.584zm-20.581 3.283c0 3.356 2.412 6.07 5.46 6.07 3.236 0 5.648-2.714 5.648-6.07 0-3.714-2.412-6.429-5.648-6.429-3.048 0-5.46 2.715-5.46 6.429m.826 50.885h9.584v-40.373h-9.584v40.373zm-23.125-33.022c3.877 0 5.655 2.505 5.655 7.228v1.073h-12.646c.125-4.722 2.667-8.301 6.991-8.301m9.464 21.663c-1.332 1.573-3.998 3.648-7.875 3.648-6.102 0-8.646-3.506-8.771-9.873h21.407c.381-3.14.444-5.139.444-7.21 0-9.87-5.269-16.367-14.415-16.367-10.355 0-16.83 7.782-16.83 20.865 0 13.94 5.775 21.081 17.085 21.081 6.861 0 10.354-1.928 13.145-4.498l-4.19-7.646zm-44.588-38.735v20.584h-16.206v-20.584h-9.711v50.094h9.711v-20.513h16.206v20.513h9.711v-50.094h-9.711zm-51.726 43.282c0 1.037-.639 1.915-2.307 1.915-2.41 0-4.358-1.636-5.244-2.793l-3.188 4.146c1.1 1.314 3.754 3.387 8.147 3.387 5.813 0 7.9-4.023 7.9-7.016 0-7.538-9.426-6.342-9.426-9.731 0-1.037.779-1.755 1.985-1.755 1.846 0 3.228 1.195 3.937 2.112l3.434-3.786c-1.311-1.714-3.611-3.146-7.228-3.146-4.643 0-7.44 3.306-7.44 6.974.002 7.499 9.43 6.423 9.43 9.693m-21.052-12.166c2.163 0 3.156 1.396 3.156 4.032v.598h-7.058c.072-2.633 1.491-4.63 3.902-4.63m5.282 12.085c-.744.878-2.231 2.036-4.396 2.036-3.403 0-4.822-1.956-4.893-5.508h11.943c.212-1.753.247-2.868.247-4.023 0-5.506-2.938-9.131-8.042-9.131-5.777 0-9.39 4.342-9.39 11.641 0 7.777 3.222 11.762 9.531 11.762 3.83 0 5.776-1.075 7.333-2.51l-2.333-4.267zm-27.113 1.956c-2.056 0-3.475-1.835-3.475-6.224 0-6.104 1.915-7.181 4.113-7.181.994 0 2.164.359 2.66.799v10.689c-.743 1.16-1.808 1.917-3.298 1.917m3.157-17.785c-.64-.199-1.419-.479-3.298-.479-4.219 0-8.751 3.066-8.751 12.557 0 7.34 3.079 10.447 7.297 10.447 2.694 0 4.326-1.555 4.894-2.191h.142l.85 1.832h4.179v-30.22h-5.312v8.054h-.001zm-41.62 22.514c5.83 0 8.559-1.465 9.737-2.439l-2.419-7.879c-1.364 1.186-3.286 1.745-4.775 1.745-2.295 0-3.658-1.396-3.658-4.119v-19.058h8.744v-8.017h-8.744v-9.909h-5.949l-3.223 9.281-4.527 2.092v6.553h4.466v18.777c0 9.557 4.338 12.973 10.348 12.973m-30.753-40.046c-4.034 0-7.261 1.952-9.247 4.253h-.248v-17.44h-9.357v52.885h9.357v-26.447c1.18-2.44 3.785-4.325 6.02-4.325 3.166 0 4.841 2.094 4.841 6.279v24.493h9.356v-26.586c0-8.859-3.904-13.112-10.722-13.112m-52.589 20.371c0 14.237 5.763 20.094 15.249 20.094 7.441 0 10.791-3.276 12.775-6.273l-5.953-6.21c-.868 1.745-2.854 3.84-5.955 3.84-4.402 0-6.573-3.909-6.573-12.286 0-8.586 2.604-11.379 6.636-11.379 3.535 0 5.334 2.793 5.83 3.771l6.264-6.697c-2.356-3.556-6.449-5.716-12.094-5.716-9.487-.003-16.179 6.967-16.179 20.856m-21.4-20.79c-7.753 0-11.223 5.229-12.587 7.391l6.632 5.516c.866-2.305 2.666-4.47 6.017-4.47 2.854 0 5.028 1.326 5.028 5.727v3.074c-11.045-.629-18.295 3.554-18.295 12.627 0 5.652 3.531 10.88 10.35 10.88 5.027 0 7.635-2.438 8.936-4.391h.248c1.055 2.438 2.975 4.252 6.32 4.252 1.55 0 3.162-.279 4.65-1.325v-7.25h-.992c-1.674 0-2.418-.979-2.418-3.213v-15.771c0-9.562-4.957-13.047-13.889-13.047m5.09 29.934c-1.056 1.605-3.104 2.794-5.4 2.794-2.422 0-3.786-1.606-3.786-3.843 0-3.424 3.041-5.027 9.187-4.54v5.589zm-52.785-25.407c1.8 5.373 3.599 10.188 5.771 14.933l9.556 20.655h11.094v-48.907h-8.985v15.482c0 5.164 0 11.933.496 18.771h-.248c-1.613-4.884-3.97-10.326-6.142-15.003l-8.873-19.25h-11.342v48.907h9.047V340.17c0-8.442-.187-12.211-.621-17.096h.247z"/></svg>
